<?xml version="1.0" encoding="UTF-8"?>
<svg width="125px" height="31px" viewBox="0 0 125 31" version="1.1" xmlns="http://www.w3.org/2000/svg" xmlns:xlink="http://www.w3.org/1999/xlink">
    <!-- Generator: Sketch 49 (51002) - http://www.bohemiancoding.com/sketch -->
    <title>Group 2</title>
    <desc>Created with Sketch.</desc>
    <defs></defs>
    <g id="Web-2017" stroke="none" stroke-width="1" fill="none" fill-rule="evenodd">
        <g id="Login" transform="translate(-450.000000, -272.000000)" fill="#FFFFFF">
            <g id="Group-2" transform="translate(450.000000, 272.000000)">
                <path d="M48.0814991,24.6666667 L41,24.6666667 L41,6.13888889 L48.0814991,6.13888889 C54.0208209,6.13888889 58.0469958,9.97222222 58.0469958,15.4166667 C58.0469958,20.8611111 54.0208209,24.6666667 48.0814991,24.6666667 Z M48.0814991,21.8055556 C52.2218917,21.8055556 54.620464,18.9166667 54.620464,15.4166667 C54.620464,11.8333333 52.3361095,9 48.0814991,9 L44.3408685,9 L44.3408685,21.8055556 L48.0814991,21.8055556 Z M61.7804878,9.61111111 C62.8084474,9.61111111 63.6365259,8.80555556 63.6365259,7.80555556 C63.6365259,6.80555556 62.8084474,6 61.7804878,6 C60.7810827,6 59.9244497,6.80555556 59.9244497,7.80555556 C59.9244497,8.80555556 60.7810827,9.61111111 61.7804878,9.61111111 Z M63.2938727,24.6666667 L63.2938727,11.25 L60.2956573,11.25 L60.2956573,24.6666667 L63.2938727,24.6666667 Z M72.5098156,25 C68.1409875,25 65.4283165,21.8055556 65.4283165,17.9444444 C65.4283165,14.1111111 68.1409875,10.9166667 72.5098156,10.9166667 C76.9357525,10.9166667 79.6198691,14.1111111 79.6198691,17.9444444 C79.6198691,21.8055556 76.9357525,25 72.5098156,25 Z M72.5098156,22.4166667 C75.0797145,22.4166667 76.507436,20.3333333 76.507436,17.9444444 C76.507436,15.5833333 75.0797145,13.5 72.5098156,13.5 C69.9684711,13.5 68.5407496,15.5833333 68.5407496,17.9444444 C68.5407496,20.3333333 69.9684711,22.4166667 72.5098156,22.4166667 Z M84.7525283,20.6388889 C85.4092802,21.6388889 86.8941106,22.4166667 88.2932778,22.4166667 C90.6918501,22.4166667 92.205235,20.5833333 92.205235,17.9722222 C92.205235,15.3611111 90.6918501,13.5 88.2932778,13.5 C86.8941106,13.5 85.4092802,14.3333333 84.7525283,15.3333333 L84.7525283,20.6388889 Z M84.7525283,24.6666667 L81.7543129,24.6666667 L81.7543129,6.13888889 L84.7525283,6.13888889 L84.7525283,13.1111111 C85.8375967,11.6944444 87.4366449,10.9166667 89.1784652,10.9166667 C92.7192148,10.9166667 95.2891136,13.6388889 95.2891136,17.9722222 C95.2891136,22.3888889 92.6906603,25 89.1784652,25 C87.379536,25 85.8090422,24.1666667 84.7525283,22.8333333 L84.7525283,24.6666667 Z M103.676978,25 C99.3081499,25 96.5954789,21.8055556 96.5954789,17.9444444 C96.5954789,14.1111111 99.3081499,10.9166667 103.676978,10.9166667 C108.102915,10.9166667 110.787032,14.1111111 110.787032,17.9444444 C110.787032,21.8055556 108.102915,25 103.676978,25 Z M103.676978,22.4166667 C106.246877,22.4166667 107.674598,20.3333333 107.674598,17.9444444 C107.674598,15.5833333 106.246877,13.5 103.676978,13.5 C101.135634,13.5 99.707912,15.5833333 99.707912,17.9444444 C99.707912,20.3333333 101.135634,22.4166667 103.676978,22.4166667 Z M125,24.6666667 L119.917311,17.7777778 L124.685901,11.25 L121.316478,11.25 L118.061273,15.8055556 L114.777513,11.25 L111.40809,11.25 L116.176681,17.7777778 L111.122546,24.6666667 L114.463415,24.6666667 L118.061273,19.7222222 L121.630577,24.6666667 L125,24.6666667 Z" id="Diobox"></path>
                <path d="M5,0 L26,0 C28.7614237,-5.07265313e-16 31,2.23857625 31,5 L31,26 C31,28.7614237 28.7614237,31 26,31 L5,31 C2.23857625,31 -1.43817996e-15,28.7614237 -1.77635684e-15,26 L0,5 C-3.38176876e-16,2.23857625 2.23857625,-1.26909153e-15 5,-1.77635684e-15 Z M21.9961784,18.8197434 C21.9987115,18.784793 22,18.7494966 22,18.7138987 L22,6.43922699 C22,5.65111311 21.3524094,5 20.5535685,5 C19.7491618,5 19.1071458,5.64436808 19.1071458,6.43922699 L19.1071458,13.930409 C18.2008451,13.3838874 17.137382,13.0692414 16.0000003,13.0692414 C12.6862916,13.0692414 10,15.7400287 10,19.0346205 C10,22.3292087 12.6862916,25 16.0000003,25 C19.3137125,25 22,22.3292087 22,19.0346205 C22,18.96269 21.9987203,18.8910577 21.9961784,18.8197434 Z M15.9999987,22 C14.3431449,22 13,20.6568551 13,19.0000013 C13,17.3431483 14.3431449,16 15.9999987,16 C17.6568517,16 19,17.3431483 19,19.0000013 C19,20.6568551 17.6568517,22 15.9999987,22 Z" id="Combined-Shape"></path>
            </g>
        </g>
    </g>
</svg>